<mxfile host="Electron" agent="Mozilla/5.0 (Windows NT 10.0; Win64; x64) AppleWebKit/537.36 (KHTML, like Gecko) draw.io/26.0.4 Chrome/128.0.6613.186 Electron/32.2.5 Safari/537.36" version="26.0.4">
  <diagram name="第 1 页" id="eWrkhFMzSREM5ZlhFUkl">
    <mxGraphModel dx="1050" dy="621" grid="0" gridSize="10" guides="1" tooltips="1" connect="1" arrows="1" fold="1" page="0" pageScale="1" pageWidth="827" pageHeight="1169" math="0" shadow="0">
      <root>
        <mxCell id="0" />
        <mxCell id="1" parent="0" />
        <mxCell id="lhWs2r0wQrPk6gZ67PG8-5" style="rounded=0;orthogonalLoop=1;jettySize=auto;html=1;entryX=0;entryY=0.25;entryDx=0;entryDy=0;exitX=1;exitY=0.5;exitDx=0;exitDy=0;" edge="1" parent="1" source="lhWs2r0wQrPk6gZ67PG8-1" target="lhWs2r0wQrPk6gZ67PG8-4">
          <mxGeometry relative="1" as="geometry" />
        </mxCell>
        <mxCell id="lhWs2r0wQrPk6gZ67PG8-8" value="put" style="edgeLabel;html=1;align=center;verticalAlign=middle;resizable=0;points=[];fontSize=16;fontStyle=1" vertex="1" connectable="0" parent="lhWs2r0wQrPk6gZ67PG8-5">
          <mxGeometry x="0.0297" relative="1" as="geometry">
            <mxPoint as="offset" />
          </mxGeometry>
        </mxCell>
        <mxCell id="lhWs2r0wQrPk6gZ67PG8-1" value="&lt;font style=&quot;font-size: 16px;&quot;&gt;&lt;b&gt;t1&lt;/b&gt;&lt;/font&gt;" style="rounded=0;whiteSpace=wrap;html=1;fillColor=#d5e8d4;strokeColor=#82b366;" vertex="1" parent="1">
          <mxGeometry x="25" y="176" width="120" height="60" as="geometry" />
        </mxCell>
        <mxCell id="lhWs2r0wQrPk6gZ67PG8-6" style="edgeStyle=orthogonalEdgeStyle;rounded=0;orthogonalLoop=1;jettySize=auto;html=1;entryX=0;entryY=0.5;entryDx=0;entryDy=0;" edge="1" parent="1" source="lhWs2r0wQrPk6gZ67PG8-2" target="lhWs2r0wQrPk6gZ67PG8-4">
          <mxGeometry relative="1" as="geometry" />
        </mxCell>
        <mxCell id="lhWs2r0wQrPk6gZ67PG8-10" value="&lt;b&gt;&lt;font style=&quot;font-size: 16px;&quot;&gt;put&lt;/font&gt;&lt;/b&gt;" style="edgeLabel;html=1;align=center;verticalAlign=middle;resizable=0;points=[];" vertex="1" connectable="0" parent="lhWs2r0wQrPk6gZ67PG8-6">
          <mxGeometry x="-0.0854" y="-1" relative="1" as="geometry">
            <mxPoint x="10" y="-1" as="offset" />
          </mxGeometry>
        </mxCell>
        <mxCell id="lhWs2r0wQrPk6gZ67PG8-2" value="&lt;font style=&quot;font-size: 16px;&quot;&gt;&lt;b&gt;t2&lt;/b&gt;&lt;/font&gt;" style="rounded=0;whiteSpace=wrap;html=1;fillColor=#d5e8d4;strokeColor=#82b366;" vertex="1" parent="1">
          <mxGeometry x="25" y="273.5" width="120" height="60" as="geometry" />
        </mxCell>
        <mxCell id="lhWs2r0wQrPk6gZ67PG8-7" style="rounded=0;orthogonalLoop=1;jettySize=auto;html=1;entryX=0;entryY=0.75;entryDx=0;entryDy=0;exitX=1;exitY=0.5;exitDx=0;exitDy=0;" edge="1" parent="1" source="lhWs2r0wQrPk6gZ67PG8-3" target="lhWs2r0wQrPk6gZ67PG8-4">
          <mxGeometry relative="1" as="geometry" />
        </mxCell>
        <mxCell id="lhWs2r0wQrPk6gZ67PG8-11" value="&lt;b&gt;&lt;font style=&quot;font-size: 16px;&quot;&gt;put&lt;/font&gt;&lt;/b&gt;" style="edgeLabel;html=1;align=center;verticalAlign=middle;resizable=0;points=[];" vertex="1" connectable="0" parent="lhWs2r0wQrPk6gZ67PG8-7">
          <mxGeometry x="0.0313" y="-2" relative="1" as="geometry">
            <mxPoint x="-1" y="-7" as="offset" />
          </mxGeometry>
        </mxCell>
        <mxCell id="lhWs2r0wQrPk6gZ67PG8-3" value="&lt;font style=&quot;font-size: 16px;&quot;&gt;&lt;b&gt;t3&lt;/b&gt;&lt;/font&gt;" style="rounded=0;whiteSpace=wrap;html=1;fillColor=#d5e8d4;strokeColor=#82b366;" vertex="1" parent="1">
          <mxGeometry x="25" y="380" width="120" height="60" as="geometry" />
        </mxCell>
        <mxCell id="lhWs2r0wQrPk6gZ67PG8-13" style="edgeStyle=orthogonalEdgeStyle;rounded=0;orthogonalLoop=1;jettySize=auto;html=1;entryX=0;entryY=0.5;entryDx=0;entryDy=0;" edge="1" parent="1" source="lhWs2r0wQrPk6gZ67PG8-4" target="lhWs2r0wQrPk6gZ67PG8-12">
          <mxGeometry relative="1" as="geometry" />
        </mxCell>
        <mxCell id="lhWs2r0wQrPk6gZ67PG8-14" value="take" style="edgeLabel;html=1;align=center;verticalAlign=middle;resizable=0;points=[];fontSize=16;fontStyle=1" vertex="1" connectable="0" parent="lhWs2r0wQrPk6gZ67PG8-13">
          <mxGeometry x="-0.0131" y="3" relative="1" as="geometry">
            <mxPoint x="1" y="3" as="offset" />
          </mxGeometry>
        </mxCell>
        <mxCell id="lhWs2r0wQrPk6gZ67PG8-4" value="" style="rounded=0;whiteSpace=wrap;html=1;fillColor=#dae8fc;strokeColor=#6c8ebf;" vertex="1" parent="1">
          <mxGeometry x="302" y="252" width="436" height="103" as="geometry" />
        </mxCell>
        <mxCell id="lhWs2r0wQrPk6gZ67PG8-12" value="&lt;font style=&quot;font-size: 16px;&quot;&gt;&lt;b&gt;t2&lt;/b&gt;&lt;/font&gt;" style="rounded=0;whiteSpace=wrap;html=1;fillColor=#d5e8d4;strokeColor=#82b366;" vertex="1" parent="1">
          <mxGeometry x="872" y="273.5" width="120" height="60" as="geometry" />
        </mxCell>
        <mxCell id="lhWs2r0wQrPk6gZ67PG8-16" value="&lt;b&gt;&lt;font style=&quot;font-size: 16px;&quot;&gt;消息队列&lt;/font&gt;&lt;/b&gt;" style="text;html=1;align=center;verticalAlign=middle;resizable=0;points=[];autosize=1;strokeColor=none;fillColor=none;" vertex="1" parent="1">
          <mxGeometry x="479" y="252" width="82" height="31" as="geometry" />
        </mxCell>
        <mxCell id="lhWs2r0wQrPk6gZ67PG8-17" value="&lt;b&gt;&lt;font style=&quot;font-size: 16px;&quot;&gt;t3(d)&lt;/font&gt;&lt;/b&gt;" style="rounded=0;whiteSpace=wrap;html=1;fillColor=#f8cecc;strokeColor=#b85450;" vertex="1" parent="1">
          <mxGeometry x="341" y="285" width="75" height="37" as="geometry" />
        </mxCell>
        <mxCell id="lhWs2r0wQrPk6gZ67PG8-19" value="&lt;b&gt;&lt;font style=&quot;font-size: 16px;&quot;&gt;t1(c)&lt;/font&gt;&lt;/b&gt;" style="rounded=0;whiteSpace=wrap;html=1;fillColor=#f8cecc;strokeColor=#b85450;" vertex="1" parent="1">
          <mxGeometry x="446" y="285" width="75" height="37" as="geometry" />
        </mxCell>
        <mxCell id="lhWs2r0wQrPk6gZ67PG8-20" value="&lt;b&gt;&lt;font style=&quot;font-size: 16px;&quot;&gt;t2(a)&lt;/font&gt;&lt;/b&gt;" style="rounded=0;whiteSpace=wrap;html=1;fillColor=#f8cecc;strokeColor=#b85450;" vertex="1" parent="1">
          <mxGeometry x="551" y="286" width="75" height="37" as="geometry" />
        </mxCell>
        <mxCell id="lhWs2r0wQrPk6gZ67PG8-21" value="&lt;b&gt;&lt;font style=&quot;font-size: 16px;&quot;&gt;t1(b)&lt;/font&gt;&lt;/b&gt;" style="rounded=0;whiteSpace=wrap;html=1;fillColor=#f8cecc;strokeColor=#b85450;" vertex="1" parent="1">
          <mxGeometry x="656" y="286" width="75" height="37" as="geometry" />
        </mxCell>
        <mxCell id="lhWs2r0wQrPk6gZ67PG8-23" value="&lt;font style=&quot;font-size: 16px;&quot;&gt;&lt;b&gt;生产者&lt;/b&gt;&lt;/font&gt;" style="text;html=1;align=center;verticalAlign=middle;resizable=0;points=[];autosize=1;strokeColor=none;fillColor=none;" vertex="1" parent="1">
          <mxGeometry x="52" y="125" width="66" height="31" as="geometry" />
        </mxCell>
        <mxCell id="lhWs2r0wQrPk6gZ67PG8-24" value="&lt;font style=&quot;font-size: 16px;&quot;&gt;&lt;b&gt;消费者&lt;/b&gt;&lt;/font&gt;" style="text;html=1;align=center;verticalAlign=middle;resizable=0;points=[];autosize=1;strokeColor=none;fillColor=none;" vertex="1" parent="1">
          <mxGeometry x="899" y="221" width="66" height="31" as="geometry" />
        </mxCell>
      </root>
    </mxGraphModel>
  </diagram>
</mxfile>
